<svg t="1685760638358" class="icon" viewBox="0 0 1024 1024" version="1.1" xmlns="http://www.w3.org/2000/svg" p-id="6632" width="200" height="200"><path d="M189.586286 480.792381v33.523809h56.612571c19.651048 0 37.327238 2.31619 52.833524 6.241524 9.069714 2.29181 16.091429 4.778667 20.943238 6.948572l115.980191 45.860571h143.481904l4.486096 0.268191c10.313143 1.219048 23.161905 4.924952 36.522666 13.287619a80.14019 80.14019 0 0 1 37.351619 56.222476l147.772953-62.829714c3.998476-2.438095 9.142857-5.193143 15.238095-7.899429 16.213333-7.192381 33.084952-11.215238 50.663619-9.947429 24.112762 1.731048 45.470476 13.702095 59.928381 35.693715 23.503238 35.766857 18.090667 72.240762-3.974095 100.693333-6.582857 8.508952-13.214476 14.628571-18.627048 18.553905a38.326857 38.326857 0 0 1-5.12 3.169524l-188.123429 96.426666-184.515047 94.281143-7.801905 3.730286a132.681143 132.681143 0 0 1-80.505905 8.777143 92.476952 92.476952 0 0 1-11.605333-2.974476L218.599619 850.407619l-29.013333-0.024381v37.61981H117.735619V480.792381h71.850667z m56.612571 110.201905l-56.612571-0.024381v182.784h35.181714c2.730667 0 5.436952 0.292571 8.118857 0.877714l3.925333 1.072762 218.989715 72.533333 5.827047 1.048381c10.435048 1.340952 22.162286-0.024381 33.645715-5.802666l369.395809-189.049905c0.609524-0.633905 1.389714-1.487238 2.194286-2.511238 3.657143-4.729905 3.900952-6.460952 0.487619-11.654096l-0.75581-1.219047c-0.121905-0.146286-0.219429-0.097524-0.658285-0.121905h-1.706667c-3.120762 0.24381-7.558095 1.462857-12.361143 3.584a71.582476 71.582476 0 0 0-1.999238 0.926476l-3.169524 1.609143-4.924952 2.974476-3.31581 1.609143-239.225904 101.717334a38.326857 38.326857 0 0 1-14.994286 3.047619h-193.048381v-76.653715h185.246476l5.924572-2.535619v-16.579047c0-4.583619-0.487619-5.412571-2.681905-6.777905a20.23619 20.23619 0 0 0-3.900953-1.804191H428.617143c-4.827429 0-9.606095-0.926476-14.092191-2.681904l-123.684571-48.932572-2.80381-1.219047-3.584-1.170286-4.242285-1.170286a139.410286 139.410286 0 0 0-34.03581-3.900952zM524.873143 97.52381C696.880762 97.52381 836.266667 236.958476 836.266667 408.941714c0 36.132571-6.144 70.826667-17.481143 103.131429l-97.572572 34.133333a238.470095 238.470095 0 0 0 43.203048-137.264762c0-132.315429-107.227429-239.542857-239.494095-239.542857-132.291048 0-239.518476 107.227429-239.518476 239.542857 0 18.895238 2.194286 37.302857 6.339047 54.954667l-75.337143-12.678095a314.270476 314.270476 0 0 1-2.852571-42.276572C213.528381 236.958476 352.938667 97.52381 524.873143 97.52381z m42.081524 134.095238l-0.024381 23.161904a202.849524 202.849524 0 0 1 50.614857 15.36l-20.163048 50.834286-7.484952-3.291428c-19.626667-8.240762-36.815238-12.385524-51.516953-12.385524-8.557714 0-14.774857 1.511619-18.675809 4.510476a13.604571 13.604571 0 0 0-5.851429 11.166476c0 4.778667 2.486857 9.045333 7.436191 12.824381 4.949333 3.779048 18.358857 10.678857 40.228571 20.675048 21.016381 9.435429 35.59619 19.577905 43.76381 30.427428 8.167619 10.825143 12.263619 24.454095 12.263619 40.911238 0 15.11619-3.82781 28.525714-11.50781 40.228572-7.655619 11.751619-18.724571 20.845714-33.158095 27.355428a96.792381 96.792381 0 0 1-5.924571 2.438096V524.190476h-73.142857l-0.073143-22.479238a142.409143 142.409143 0 0 1-12.53181-1.974857 151.600762 151.600762 0 0 1-34.328381-11.946667v-58.63619l7.582476 3.681524c10.215619 4.705524 20.72381 8.508952 31.573334 11.385904a145.944381 145.944381 0 0 0 37.327238 5.412572c9.801143 0 16.944762-1.706667 21.504-5.071238a15.62819 15.62819 0 0 0 6.826666-13.092572 14.384762 14.384762 0 0 0-2.730666-8.752762 32.01219 32.01219 0 0 0-8.850286-7.558095c-4.047238-2.56-14.848-7.801905-32.426667-15.676952-15.847619-7.216762-27.794286-14.238476-35.718095-21.016381a64.463238 64.463238 0 0 1-17.67619-23.332572c-3.82781-8.777143-5.753905-19.163429-5.753905-31.158857 0-22.430476 8.167619-39.936 24.502857-52.49219a80.457143 80.457143 0 0 1 20.72381-11.385905l0.048762-28.476952h73.142857z" p-id="6633"></path></svg>