<svg t="1685761386468" class="icon" viewBox="0 0 1024 1024" version="1.1" xmlns="http://www.w3.org/2000/svg" p-id="7191" width="200" height="200"><path d="M836.632381 411.794286h75.946667c8.094476 32.280381 12.385524 66.023619 12.385523 100.790857 0 228.498286-185.246476 413.744762-413.744761 413.744762l-7.850667-0.097524a412.452571 412.452571 0 0 1-289.01181-125.488762v119.637333h-73.142857V682.666667h212.601905v73.142857l-64.414476 0.048762c53.784381 57.148952 127.609905 89.429333 223.280762 97.304381l4.681143-0.048762 4.778666-0.121905 5.632-0.219429 1.340953-0.073142 1.462857-0.073143 1.560381-0.097524 1.267809-0.073143-0.950857 0.048762 1.584762-0.097524c5.534476-0.365714 11.044571-0.853333 16.505905-1.462857l0.560762-0.073143 0.243809-0.048762 0.560762-0.097524 0.877714-0.097523 4.071619-0.487619-0.243809 0.024381 0.316952-0.024381 1.292191-0.219429 0.292571-0.048762 1.682286-0.195048 3.559619-0.53638-0.731429 0.121904 1.536-0.26819 4.047238-0.658286-1.682285 0.292572 0.902095-0.146286 4.047238-0.707048 3.486476-0.633905 1.950476-0.414476-1.511619 0.341334 3.584-0.731429 3.291429-0.682667 2.31619-0.512 1.365334-0.292571 0.804571-0.195048 2.706286-0.609524 3.315809-0.804571-3.388952 0.804571 3.900952-0.926476 1.316572-0.341333-1.26781 0.316952 1.292191-0.316952 1.706666-0.438857 1.77981-0.463238 1.584762-0.438857 0.902095-0.24381 0.609524-0.170667 2.340571-0.633904 2.413715-0.707048 1.536-0.438857 1.584762-0.487619 1.706666-0.487619 1.487238-0.487619 1.852953-0.560762 3.657143-1.170286 3.364571-1.145905 3.169524-1.097143 0.682666-0.243809 3.023239-1.097143 2.194285-0.828952 2.145524-0.804572 1.609143-0.609524 0.999619-0.390095 1.926095-0.755809 1.682286-0.682667 2.048-0.853333 0.243809-0.097524 1.804191-0.75581 0.463238-0.195047 3.486476-1.487238 1.511619-0.658286 2.243048-0.999619 1.097143-0.487619 0.414476-0.195048 2.438095-1.121524 0.24381-0.121904 2.194285-1.024 3.267048-1.584762 0.487619-0.24381 2.80381-1.365333 1.584762-0.804572 2.657523-1.389714 0.585143-0.292571a339.69981 339.69981 0 0 0 11.946667-6.509715l-1.731048 0.926477 1.828572-0.999619 2.291809-1.365334-1.316571 0.75581 1.682285-0.975238 0.926477-0.487619 5.753904-3.486477-2.267428 1.340953 4.87619-2.974476 3.218286-2.072381 4.754286-3.120762 1.389714-0.926476 2.438095-1.682286 1.706667-1.219048 1.219048-0.804571 0.463238-0.341333 1.048381-0.75581 1.340952-0.950857 2.852571-2.072381 0.487619-0.365714 2.194286-1.633524 0.316953-0.24381 2.974476-2.243047 0.316952-0.268191 1.584762-1.243428 3.803429-2.998858 5.607619-4.63238 2.730666-2.29181 1.536-1.365333 0.536381-0.487619 0.438857-0.365715c3.486476-3.023238 6.777905-6.022095 9.996191-9.069714l4.486095-4.339809 4.388572-4.388572 2.048-2.121143 2.048-2.121143 2.413714-2.56 2.462476-2.706285 1.316571-1.462857 0.780191-0.853334 0.365714-0.414476 0.512-0.609524 1.804191-2.048 1.926095-2.218666 0.292571-0.341334 1.755429-2.096762 0.438857-0.487619 0.512-0.609524 2.169905-2.706285-0.633905 0.828952 0.804572-0.999619 1.609142-1.950476 2.364953-2.974476 0.024381-0.097524 0.877714-1.121524 0.804571-0.975238-1.706666 2.194286c2.82819-3.632762 5.607619-7.314286 8.289524-11.044572l1.365333-1.950476 0.755809-1.024 2.096762-2.998857-1.072762 1.487238 5.266286-7.728762a340.845714 340.845714 0 0 0 10.727619-17.408l1.121524-2.072381 2.438095-4.339809a339.675429 339.675429 0 0 0 17.383619-36.985905l2.023619-5.168762a338.578286 338.578286 0 0 0 10.48381-32.572952l1.609143-6.192762a338.70019 338.70019 0 0 0 9.923047-81.993143l-0.073143-7.631238a340.065524 340.065524 0 0 0-15.091809-93.208381zM559.299048 341.333333l51.736381 51.712-47.299048 47.274667H633.904762v73.142857h-85.333333v48.761905H633.904762v73.142857h-85.333333v73.142857h-73.142858v-73.142857H390.095238v-73.142857h85.333333v-48.761905H390.095238v-73.142857h70.192762l-47.299048-47.274667L464.725333 341.333333 512 388.632381 559.299048 341.333333zM865.792 97.52381v237.714285h-212.553143v-73.142857h72.752762c-51.151238-50.712381-119.393524-80.286476-206.116571-89.136762l-10.069334-0.926476-5.778285 0.073143-5.924572 0.170667-2.998857 0.121904-1.828571 0.097524-1.877334 0.097524-3.754666 0.243809-4.461715 0.316953-3.632762 0.316952-3.486476 0.341334-2.925714 0.316952-7.875048 0.975238-7.801904 1.145905-3.584 0.585143 1.438476-0.24381-3.218286 0.536381-1.194667 0.219429-1.999238 0.365714-6.046476 1.170286-7.143619 1.536-1.828571 0.438857-5.510096 1.316571a338.017524 338.017524 0 0 0-9.118476 2.438095l0.950857-0.292571-2.048 0.585143-2.925714 0.853333-3.657143 1.072762-0.633905 0.195048-0.78019 0.243809-3.413333 1.072762-5.729524 1.901714a337.968762 337.968762 0 0 0-19.846095 7.484953l-0.804572 0.316952-0.609524 0.24381-0.414476 0.195047-1.80419 0.731429-0.804572 0.390095-1.80419 0.804572-1.609143 0.707047-2.633143 1.170286-0.536381 0.243809-2.438095 1.121524-3.486476 1.633524-3.340191 1.633524-1.024 0.487619-1.80419 0.926476-1.414096 0.707048-2.218666 1.145904-1.438476 0.731429-1.219048 0.682667-0.975238 0.487619-0.585143 0.316952-0.804571 0.438857-0.950858 0.536381a340.163048 340.163048 0 0 0-15.457523 8.94781l-0.512 0.316952-2.194286 1.365333-2.681905 1.706667a341.089524 341.089524 0 0 0-6.436571 4.242286l-0.438857 0.292571-2.56 1.706667-1.804191 1.267809 1.26781-0.853333-5.193143 3.657143-0.438857 0.316952-2.243048 1.633524-2.657524 1.974857-0.292571 0.219429-0.633905 0.487619-1.926095 1.438476 1.926095-1.462857-5.36381 4.144762a342.211048 342.211048 0 0 0-7.363047 5.973333l-1.292191 1.072762-2.438095 2.096762-0.78019 0.633905-7.070477 6.290286a342.674286 342.674286 0 0 0-21.577142 21.504l-6.656 7.460571c-1.121524 1.26781-2.194286 2.56-3.31581 3.876571l-0.487619 0.585143-2.194286 2.681905-2.218666 2.681905-1.243429 1.584762-1.340952 1.682285-2.072381 2.681905-1.536 2.048-0.170667 0.24381-0.316952 0.365714-1.389715 1.877333-0.390095 0.536381-2.291809 3.145143-1.121524 1.560381-0.950857 1.316571-0.536381 0.804572-1.536 2.194286-1.024 1.462857-0.950857 1.438476-0.365715 0.536381-1.414095 2.121143-0.341333 0.560762-1.560381 2.389333-0.975238 1.511619-0.170667 0.24381-4.169143 6.753523-5.071238 8.679619-4.827428 8.850286-2.462477 4.778667-0.438857 0.828952-1.316571 2.657524 1.267809-2.535619-3.096381 6.339048a338.895238 338.895238 0 0 0-3.413333 7.411809l-0.487619 1.121524-0.219429 0.438857-0.292571 0.682667a338.383238 338.383238 0 0 0-23.332571 77.043809l-1.121524 6.704762A340.528762 340.528762 0 0 0 170.666667 512.609524c0 34.913524 5.266286 68.608 15.018666 100.352H109.787429A414.622476 414.622476 0 0 1 97.52381 512.585143c0-27.794286 2.730667-54.930286 7.94819-81.188572 37.717333-189.610667 205.04381-332.55619 405.77219-332.55619 108.690286 0 207.60381 41.935238 281.429334 110.494476V97.52381h73.142857z" p-id="7192"></path></svg>