<svg t="1685550895221" class="icon" viewBox="0 0 1024 1024" version="1.1" xmlns="http://www.w3.org/2000/svg" p-id="1931" width="200" height="200"><path d="M512 0C371.2 0 256 115.2 256 256s115.2 256 256 256 256-115.2 256-256-115.2-256-256-256z m0 426.666667c-93.866667 0-170.666667-76.8-170.666667-170.666667s76.8-170.666667 170.666667-170.666667 170.666667 76.8 170.666667 170.666667-76.8 170.666667-170.666667 170.666667zM738.133333 597.333333H285.866667C128 597.333333 0 725.333333 0 883.2 0 960 64 1024 140.8 1024h738.133333c76.8 0 140.8-64 140.8-140.8C1024 725.333333 896 597.333333 738.133333 597.333333z m145.066667 341.333334H140.8c-29.866667 0-55.466667-25.6-55.466667-55.466667C85.333333 772.266667 174.933333 682.666667 285.866667 682.666667h456.533333c110.933333 0 200.533333 89.6 200.533333 200.533333-4.266667 29.866667-29.866667 55.466667-59.733333 55.466667z" fill="#303133" p-id="1932"></path></svg>