<svg t="1685550782699" class="icon" viewBox="0 0 1024 1024" version="1.1" xmlns="http://www.w3.org/2000/svg" p-id="1786" width="200" height="200"><path d="M384 0H85.333333C38.4 0 0 38.4 0 85.333333v298.666667c0 46.933333 38.4 85.333333 85.333333 85.333333h298.666667c46.933333 0 85.333333-38.4 85.333333-85.333333V85.333333c0-46.933333-38.4-85.333333-85.333333-85.333333z m0 384H85.333333V85.333333h298.666667v298.666667zM384 554.666667H85.333333c-46.933333 0-85.333333 38.4-85.333333 85.333333v298.666667c0 46.933333 38.4 85.333333 85.333333 85.333333h298.666667c46.933333 0 85.333333-38.4 85.333333-85.333333v-298.666667c0-46.933333-38.4-85.333333-85.333333-85.333333z m0 384H85.333333v-298.666667h298.666667v298.666667zM938.666667 0h-298.666667c-46.933333 0-85.333333 38.4-85.333333 85.333333v298.666667c0 46.933333 38.4 85.333333 85.333333 85.333333h298.666667c46.933333 0 85.333333-38.4 85.333333-85.333333V85.333333c0-46.933333-38.4-85.333333-85.333333-85.333333z m0 384h-298.666667V85.333333h298.666667v298.666667zM938.666667 554.666667h-298.666667c-46.933333 0-85.333333 38.4-85.333333 85.333333v298.666667c0 46.933333 38.4 85.333333 85.333333 85.333333h298.666667c46.933333 0 85.333333-38.4 85.333333-85.333333v-298.666667c0-46.933333-38.4-85.333333-85.333333-85.333333z m0 384h-298.666667v-298.666667h298.666667v298.666667z" fill="#303133" p-id="1787"></path></svg>